Coordinates
version=1
nRows=5
nColumns=40
inDegrees=yes

Units are S.I. units (second, meters, Newtons, ...)
Angles are in degrees.

endheader
time	pelvis_tilt	pelvis_list	pelvis_rotation	pelvis_tx	pelvis_ty	pelvis_tz	hip_flexion_r	hip_adduction_r	hip_rotation_r	knee_angle_r	knee_angle_r_beta	ankle_angle_r	subtalar_angle_r	mtp_angle_r	hip_flexion_l	hip_adduction_l	hip_rotation_l	knee_angle_l	knee_angle_l_beta	ankle_angle_l	subtalar_angle_l	mtp_angle_l	lumbar_extension	lumbar_bending	lumbar_rotation	arm_flex_r	arm_add_r	arm_rot_r	elbow_flex_r	pro_sup_r	wrist_flex_r	wrist_dev_r	arm_flex_l	arm_add_l	arm_rot_l	elbow_flex_l	pro_sup_l	wrist_flex_l	wrist_dev_l
     21.80000000	     -3.48264173	     -6.30559825	      2.78000457	      1.04313737	      0.93132426	      0.50838358	     12.44189531	      4.62367486	    -19.56649957	     14.72075829	     14.72075829	      9.38852670	      8.05309210	     -4.58215542	     31.78638803	    -15.55742521	      0.39404386	     58.67214356	     58.67214356	     11.71357244	    -18.49662327	     12.83986692	    -12.97886816	      8.35602242	      4.40684023	     15.51321888	    -16.59388332	      1.57454617	     38.47226340	     45.65040740	      0.00000000	      0.00000000	      7.03672932	    -10.86163420	      1.51617906	     62.23140366	     46.42100477	      0.00000000	      0.00000000
     21.81157143	     -3.49247785	     -6.38883230	      2.85137768	      1.04175284	      0.93144376	      0.50889825	     11.74711740	      4.89610238	    -19.34091853	     14.28448879	     14.28448879	      9.65356872	      7.85143725	     -4.66105956	     32.90273687	    -15.55413311	      0.46138334	     56.15869778	     56.15869778	     11.59305749	    -18.38981103	     13.09088190	    -13.03938328	      8.40452541	      4.23719461	     18.28686957	    -16.51815692	      1.56297012	     39.72598419	     45.62259274	      0.00000000	      0.00000000	      5.18795944	    -10.82464888	      1.61150340	     59.83609885	     46.38284015	      0.00000000	      0.00000000
     21.82314286	     -3.50606108	     -6.49344445	      2.91268227	      1.04042759	      0.93149496	      0.50933090	     11.02647995	      5.16125866	    -19.31514025	     13.79189975	     13.79189975	      9.80926419	      7.98700360	     -5.03330213	     33.76494132	    -15.56102254	      0.45441006	     53.25758020	     53.25758020	     11.04615186	    -18.26468850	     12.61274600	    -13.05502149	      8.52559527	      4.44756216	     20.79655720	    -16.81947668	      2.40795030	     40.91636206	     45.55336097	      0.00000000	      0.00000000	      4.37132824	    -10.04320389	      0.77564514	     55.22488389	     46.43613106	      0.00000000	      0.00000000
     21.83471429	     -3.44952469	     -6.55842360	      2.97394504	      1.03918472	      0.93156594	      0.50967233	     10.24971034	      5.37628553	    -19.27298601	     13.35518462	     13.35518462	     10.08761033	      8.12911043	     -5.13437685	     34.33063962	    -15.44527836	      0.49175024	     50.10564764	     50.10564764	     10.63400238	    -18.07201999	     12.88639247	    -13.22642716	      8.56433853	      4.30068825	     23.37758185	    -16.70620971	      2.49363283	     42.52203323	     45.50575694	      0.00000000	      0.00000000	      2.68144589	     -9.98719372	      0.81504370	     52.95768989	     46.40226448	      0.00000000	      0.00000000
     21.84628571	     -3.44922907	     -6.68889704	      3.02215711	      1.03803001	      0.93147902	      0.50993134	      9.51231448	      5.64664812	    -19.33713023	     12.86252655	     12.86252655	     10.25784815	      8.47406875	     -5.49744650	     34.78757674	    -15.40073125	      0.47231198	     46.72549618	     46.72549618	      9.78834703	    -17.72676804	     12.19859300	    -13.24509181	      8.72773902	      4.66128720	     25.51222552	    -17.24731062	      3.69930430	     44.50229378	     45.39415769	      0.00000000	      0.00000000	      2.30616861	     -9.09762277	     -0.24058613	     47.80687265	     46.47971100	      0.00000000	      0.00000000
